 <svg
    id="Layer_1"
    version="1.1"
    xmlns="http://www.w3.org/2000/svg"
    xmlns:xlink="http://www.w3.org/1999/xlink"
    viewBox="0 0 500 90"
    style="enable-background: new 0 0 500 90;"
    xml:space="preserve"
  >
    <g>
      <path
        fill="#007DC3"
        d="M167,21.4c-4.4,0-7.9,1.1-12.8,4.4c-2.3-3.2-5-4.4-8.9-4.4c-2.9,0-6.2,1-10.6,4l0.6-2.4
		c0.2-0.6-0.2-1.1-0.8-1.1h-10c-0.6,0-1.3,0.5-1.5,1.1l-10.5,38.9c-0.2,0.6,0.2,1.2,0.8,1.2h10.3c0.6,0,1.3-0.5,1.5-1.2l6.3-23.5
		c1.3-4.7,4.9-5.7,6.6-5.7c1.7,0,4.8,0.9,3.5,5.7l-6.3,23.5c-0.2,0.6,0.2,1.2,0.8,1.2h10.3c0.6,0,1.3-0.5,1.5-1.2l6.3-23.5
		c1.3-4.7,4.9-5.7,6.6-5.7c1.7,0,4.8,0.9,3.5,5.7L158,61.9c-0.2,0.6,0.2,1.2,0.8,1.2h10.3c0.6,0,1.3-0.5,1.5-1.2l6.8-25.2
		C179.7,27.8,176.2,21.4,167,21.4 M197.2,20c4.2,0,8.6-3.4,9.7-7.7c1.1-4.2-1.4-7.7-5.6-7.7c-4.2,0-8.6,3.4-9.7,7.7
		C190.5,16.6,193,20,197.2,20 M201.4,23.5h-10.3c-0.6,0-1.3,0.5-1.5,1.1l-10,37.3c-0.2,0.6,0.2,1.2,0.8,1.2h10.3
		c0.6,0,1.3-0.5,1.5-1.2l10-37.3C202.4,24,202,23.5,201.4,23.5 M256,21.4c-4.4,0-7.9,1.1-12.8,4.4c-2.3-3.2-5-4.4-8.8-4.4
		c-2.9,0-6.2,1-10.6,4l0.6-2.4c0.2-0.6-0.2-1.1-0.8-1.1h-10c-0.6,0-1.3,0.5-1.5,1.1l-10.5,38.9c-0.2,0.6,0.2,1.2,0.8,1.2h10.3
		c0.6,0,1.3-0.5,1.5-1.2l6.3-23.5c1.3-4.7,4.9-5.7,6.6-5.7c1.7,0,4.8,0.9,3.5,5.7l-6.3,23.5c-0.2,0.6,0.2,1.2,0.8,1.2h10.3
		c0.6,0,1.3-0.5,1.5-1.2l6.3-23.5c1.3-4.7,4.9-5.7,6.6-5.7c1.7,0,4.8,0.9,3.5,5.7L247,61.9c-0.2,0.6,0.2,1.2,0.8,1.2h10.3
		c0.6,0,1.3-0.5,1.5-1.2l6.8-25.2C268.7,27.8,265.2,21.4,256,21.4 M295.9,21.4c-6.7,0-11.5,2.7-14.7,5.3c-4.4,3.8-6.6,7.7-8.8,15.8
		c-2.2,8.1-2.2,12,0.3,15.8c1.7,2.6,5.2,5.3,11.8,5.3c6.7,0,11.5-2.7,14.7-5.3c4.5-3.7,6.6-7.7,8.8-15.8c2.2-8,2.2-12-0.3-15.8
		C305.9,24.1,302.5,21.4,295.9,21.4 M295.4,42.5c-1.1,4.1-2.4,9.7-7.8,9.7c-5.4,0-3.7-5.7-2.6-9.7c1.1-4.1,2.4-9.7,7.8-9.7
		C298.2,32.7,296.5,38.4,295.4,42.5 M355,21.9h-10.6c-0.4,0-1.1,0.5-1.3,0.8l-12,20.6l-1-20.6c0-0.3-0.5-0.8-0.9-0.8h-10.6
		c-1,0-1.6,0.7-1.6,1.5l3.8,38.9c0.1,0.3,0.6,0.8,0.9,0.8h8c0.3,0,1-0.5,1.3-0.8l24.8-38.9C356.2,22.6,356,21.9,355,21.9
		 M391.4,24.4c-1.9-2.2-4.3-3-7.9-3c-3.6,0-7,1.4-10.8,4l0.6-2.4c0.2-0.6-0.2-1.1-0.8-1.1h-10c-0.6,0-1.3,0.5-1.5,1.1l-10.5,38.9
		c-0.2,0.6,0.2,1.2,0.8,1.2h10.3c0.6,0,1.3-0.5,1.5-1.2l6.3-23.5c1.3-4.7,4.9-5.7,6.6-5.7c1.7,0,2.6,0.6,3.4,1.4
		C381,35.9,393.1,26.2,391.4,24.4 M412.5,21.4c-8.2,0-17.6,4.5-20,13.6c-3.2,11.8,6.6,11.7,14.9,12.6c2.4,0.2,2.6,1.5,2.3,2.6
		c-0.5,1.9-4.7,2.7-6.1,2.7c-2.1,0-6-0.1-8.5-2.8c-1.4-1.5-11.7,6.5-10.3,8.3c4.1,4.8,9.8,5.1,15.7,5.1c9.6,0,19-4.2,21.6-13.9
		c3.2-11.8-6.8-12.3-15.2-13.2c-1.6-0.1-2.5-0.7-2.1-2.3c0.2-0.9,1.6-2.4,4.7-2.4c2.8,0,5.8,0.3,7.5,1.8c1.5,1.3,11.3-6.3,9.7-8
		C423.6,22.3,418.7,21.4,412.5,21.4 M454.7,23.5h-5.4l2.9-10.6c0.2-0.6-0.2-1.1-0.8-1.1h-10.3c-0.6,0-1.3,0.5-1.5,1.1l-2.9,10.6
		h-2.6c-0.6,0-1.3,0.5-1.5,1.1l-2,7.3c-0.2,0.6,0.2,1.2,0.8,1.2h2.6l-4.8,17.8c-1.5,5.7,0.4,12.2,9.5,12.2h5.1
		c0.6,0,1.3-0.5,1.5-1.2l2.2-8.3c0.2-0.6-0.2-1.1-0.8-1.1h-2.8c-1.7,0-2.3-0.9-1.8-2.5l4.5-16.8h5.4c0.6,0,1.3-0.5,1.5-1.2l2-7.3
		C455.7,24,455.3,23.5,454.7,23.5 M480.9,21.4c-10.8,0-20.5,7.6-24.1,21c-4.8,17.8,4.8,21.1,13.9,21.1c7.1,0,11.7-2,16.7-5.7
		c2.3-1.8-3.2-9.2-5.4-7.6c-2.4,1.7-4.5,2.7-8.4,2.7c-4.2,0-6.2-2.4-5.5-6.4h23.4c0.6,0,1.3-0.5,1.5-1.1l1.2-4.4
		C497,30.1,492.8,21.4,480.9,21.4 M482.5,38.2h-12.2c1.1-3.7,3.6-6.4,7.9-6.4C482.3,31.8,483.3,34.5,482.5,38.2"
      />
      <path
        fill="#FFC433"
        d="M32.8,37.3c2.4-1.6,5.1-5,7-8.9c1.5-3,2.7-6.3,3.1-9.3c1-7-2.6-8.3-7.1-3.6c-3.9,4-7.2,11.1-7.9,16.4
		C27.1,37.1,29.1,39.6,32.8,37.3 M58.4,39.7c4.2-2,8.7-5.9,12.4-10.5c3.7-4.6,6.4-9.9,7.1-14.5c0.3-2.1,0.1-3.6-0.5-4.7
		c-2-3.9-8.5-2.1-15.4,3.9c-6.8,6-12,14.7-12.8,20.5C48.4,40.1,52,42.8,58.4,39.7 M111.7,22.3c-2.7-1.9-12-0.3-25.4,8.5
		c-0.8,0.5-1.6,1-2.3,1.6c-0.4,0.3-1,0.8,0.4,1.6c1.7,0.9,3.2,2.1,2,3.2C74.6,47.5,67.2,54.8,54,62.2c-7.7,4.2-15.2,7.2-19.8,8.9
		c-7.2,2.6-12.8,3-16.4,1.6c-3.7-1.5-5.7-4.1-6.6-7.4c-0.9-3.1-0.9-6.7-0.9-10.4c0.1-2.7,0.9-6.5,1.5-8.9c0.7-2.5,3.1-7,2.2-7.2
		c-0.9-0.2-3.3,3.2-4.3,5.1c-0.9,1.7-2.6,6-2.9,6.9c-3.8,13.5-1.4,23.9,6.6,30c2,1.5,4.4,2.7,7.3,3.5c5.7,1.6,13.5,1.5,23.2-1.1
		c1.1-0.3,7-2.3,8.8-3c25.8-9.7,44.7-33.1,47-35.1c1.3-1.1,1.8,0,3.7,1.3c1.6,1,1.9,0.5,2.5-0.3c0.9-1.3,1.7-2.1,2.3-3.5
		C113,31.7,114.1,23.9,111.7,22.3"
      />
    </g>
  </svg>
